<?xml version="1.0" encoding="utf-8"?>
<!-- Generator: Adobe Illustrator 16.0.3, SVG Export Plug-In . SVG Version: 6.00 Build 0)  -->
<!DOCTYPE svg PUBLIC "-//W3C//DTD SVG 1.1//EN" "http://www.w3.org/Graphics/SVG/1.1/DTD/svg11.dtd">
<svg version="1.1" id="Layer_1" xmlns="http://www.w3.org/2000/svg" xmlns:xlink="http://www.w3.org/1999/xlink" x="0px" y="0px"
	 width="72px" height="9px" viewBox="0 0 72 9" enable-background="new 0 0 72 9" xml:space="preserve">
<g>
	<g>
		<g>
			<rect y="3" fill="#ABB1BE" width="3" height="1"/>
			<rect y="5.016" fill="#ABB1BE" width="3" height="1"/>
			<rect y="3.016" fill="#ABB1BE" width="1" height="5"/>
			<rect x="3" y="4" fill="#ABB1BE" width="1" height="1"/>
		</g>
	</g>
	<g>
		<rect x="6" y="3" fill="#ABB1BE" width="2" height="1"/>
		<rect x="6" y="7" fill="#ABB1BE" width="2" height="1"/>
		<rect x="5" y="4" fill="#ABB1BE" width="1" height="3"/>
		<rect x="8" y="4" fill="#ABB1BE" width="1" height="3"/>
	</g>
	<g>
		<rect x="10" y="3" fill="#ABB1BE" width="1" height="3"/>
		<rect x="12" y="4" fill="#ABB1BE" width="1" height="2"/>
		<rect x="11" y="6" fill="#ABB1BE" width="1" height="2"/>
		<rect x="13" y="6" fill="#ABB1BE" width="1" height="2"/>
		<rect x="14" y="3" fill="#ABB1BE" width="1" height="3"/>
	</g>
	<g>
		<rect x="35" y="3" fill="#ABB1BE" width="1" height="5"/>
		<rect x="35.001" y="3" fill="#ABB1BE" width="3" height="1"/>
		<rect x="35.001" y="5" fill="#ABB1BE" width="3" height="1"/>
		<rect x="35.001" y="7" fill="#ABB1BE" width="3" height="1"/>
		<rect x="38" y="6" fill="#ABB1BE" width="1" height="1"/>
		<rect x="38" y="4" fill="#ABB1BE" width="1" height="1"/>
	</g>
	<g>
		<rect x="40" y="3" fill="#ABB1BE" width="1" height="2"/>
		<rect x="42" y="3" fill="#ABB1BE" width="1" height="2"/>
		<rect x="41" y="5" fill="#ABB1BE" width="1" height="3"/>
	</g>
	<g>
		<rect x="32" y="4" fill="#ABB1BE" width="1" height="3"/>
		<rect x="29" y="3" fill="#ABB1BE" width="1" height="5"/>
		<rect x="29" y="3" fill="#ABB1BE" width="3" height="1"/>
		<rect x="29" y="7" fill="#ABB1BE" width="3" height="1"/>
	</g>
	<g>
		<rect x="25" y="3" fill="#ABB1BE" width="1" height="5"/>
		<rect x="25" y="3" fill="#ABB1BE" width="3" height="1"/>
		<rect x="25" y="7" fill="#ABB1BE" width="3" height="1"/>
		<rect x="25" y="5" fill="#ABB1BE" width="2" height="1"/>
	</g>
	<g>
		<rect x="20" y="3" fill="#ABB1BE" width="1" height="5"/>
		<rect x="23" y="3" fill="#ABB1BE" width="1" height="2"/>
		<rect x="23" y="6" fill="#ABB1BE" width="1" height="2"/>
		<rect x="20" y="3" fill="#ABB1BE" width="4" height="1"/>
		<rect x="20" y="5" fill="#ABB1BE" width="3" height="1"/>
	</g>
	<g>
		<rect x="16" y="3" fill="#ABB1BE" width="1" height="5"/>
		<rect x="16" y="3" fill="#ABB1BE" width="3" height="1"/>
		<rect x="16" y="7" fill="#ABB1BE" width="3" height="1"/>
		<rect x="16" y="5" fill="#ABB1BE" width="2" height="1"/>
	</g>
	<g>
		<g>
			<rect x="59" y="2" fill="#E6336E" width="2" height="6"/>
			<rect x="59" y="2" fill="#E6336E" width="9" height="2"/>
			<rect x="59" y="6" fill="#E6336E" width="9" height="2"/>
			<rect x="68" y="4" fill="#E6336E" width="2" height="2"/>
		</g>
		<rect x="70" fill="#E6336E" width="2" height="2"/>
	</g>
	<g>
		<rect x="47" y="2" fill="#E6336E" width="2" height="6"/>
		<rect x="55" y="2" fill="#E6336E" width="2" height="6"/>
		<rect x="51" y="4" fill="#E6336E" width="2" height="2"/>
		<rect x="53" y="6" fill="#E6336E" width="4" height="2"/>
		<rect x="47" y="2" fill="#E6336E" width="4" height="2"/>
	</g>
</g>
</svg>
